<?xml version="1.0" standalone="no"?>
<!DOCTYPE svg PUBLIC "-//W3C//DTD SVG 20010904//EN"
 "http://www.w3.org/TR/2001/REC-SVG-20010904/DTD/svg10.dtd">
<svg version="1.0" xmlns="http://www.w3.org/2000/svg"
 width="512.000000pt" height="512.000000pt" viewBox="0 0 512.000000 512.000000"
 preserveAspectRatio="xMidYMid meet">

<g transform="translate(0.000000,512.000000) scale(0.100000,-0.100000)"
fill="#000000" stroke="none">
<path d="M2014 4560 c-504 -48 -955 -320 -1227 -740 -197 -305 -290 -672 -258
-1022 26 -298 111 -542 273 -785 98 -148 293 -343 441 -442 565 -375 1269
-375 1833 0 139 92 342 292 433 427 376 555 385 1265 23 1822 -247 381 -646
645 -1086 720 -138 23 -313 31 -432 20z m416 -175 c596 -115 1049 -561 1182
-1163 32 -143 32 -443 0 -589 -136 -627 -627 -1084 -1260 -1174 -119 -17 -381
-6 -499 20 -580 128 -1018 570 -1145 1154 -32 147 -32 447 -1 589 91 406 314
730 656 952 186 121 423 205 652 230 79 8 332 -3 415 -19z"/>
<path d="M1341 3715 c-89 -81 -201 -256 -251 -393 -55 -150 -72 -265 -67 -432
6 -164 31 -282 90 -419 72 -166 231 -371 287 -371 42 0 59 9 76 42 20 38 11
62 -44 123 -120 134 -207 309 -243 490 -17 86 -14 275 6 369 33 159 107 307
218 437 73 85 83 108 66 141 -31 59 -82 63 -138 13z"/>
<path d="M3631 1893 c-11 -10 -24 -33 -27 -51 -7 -33 0 -40 455 -496 427 -428
461 -465 461 -496 0 -30 -13 -47 -108 -142 -95 -95 -112 -108 -142 -108 -31 0
-68 34 -489 454 -251 250 -466 457 -479 461 -60 18 -119 -49 -91 -104 8 -15
221 -233 474 -483 427 -422 464 -456 514 -473 62 -20 121 -16 179 14 46 24
254 234 278 281 26 51 25 143 -3 200 -16 32 -157 180 -481 503 -407 407 -461
457 -489 457 -17 0 -40 -8 -52 -17z"/>
</g>
</svg>
